<svg width="566" height="551" viewBox="0 0 566 551" fill="none" xmlns="http://www.w3.org/2000/svg">
<path d="M305.445 19.0168C298.126 28.0376 286.171 41.6907 278.852 49.4925L265.19 63.877L236.89 35.5956L208.59 7.31415L195.172 20.7234L181.754 34.1328L214.202 66.5589L246.405 98.7412V111.175C246.405 121.659 245.429 124.341 240.55 127.51C232.987 132.63 225.18 145.308 223.228 156.279C221.033 167.738 229.571 188.462 239.33 195.288C246.161 200.164 246.405 200.896 246.405 222.107C246.405 234.053 245.673 243.805 244.941 243.805C242.746 243.805 214.202 226.739 209.322 222.35C206.883 220.4 204.931 216.499 204.931 214.061C204.931 211.623 202.735 205.284 200.052 200.164C191.757 183.829 170.776 175.052 152.234 180.172C143.696 182.61 141.988 182.123 130.521 175.052C123.934 170.664 117.835 167.007 117.591 166.763C117.103 166.275 111.736 148.234 105.881 126.535C100.026 104.836 94.9025 86.5509 94.1706 86.0633C93.4387 85.3319 60.7473 92.4022 59.0396 94.1089C58.5516 94.3527 62.699 111.175 68.0663 131.655C73.6775 151.891 78.0689 169.201 78.0689 170.176C78.0689 171.151 70.7499 174.077 61.7232 176.515C20.249 187.974 4.14731 192.606 2.92749 193.581C1.70766 195.044 9.75852 229.177 11.4663 229.177C12.1982 229.177 33.4232 223.569 58.7956 216.743L104.905 204.309L112.712 208.941C119.299 212.842 121.007 215.524 122.227 224.545C123.934 239.173 130.034 249.657 140.28 255.996C152.478 263.554 166.14 264.773 179.071 259.896L189.805 255.752L208.346 266.967C218.593 273.306 226.888 279.157 226.888 279.889C226.888 280.864 218.349 286.715 208.102 293.054C190.293 303.781 188.829 304.025 182.486 300.856C171.996 295.492 151.015 296.467 141.256 303.05C129.058 311.096 121.983 323.042 121.983 335.232C121.983 344.497 121.007 346.204 113.688 350.592L105.637 355.468L61.9671 343.522C38.0585 337.183 16.5896 331.819 14.3939 331.575C10.4904 331.575 6.83093 340.84 3.65938 358.638C2.19559 367.171 2.19559 367.171 12.6861 369.853C42.6939 377.167 74.6534 386.188 76.3611 387.65C77.5809 388.626 75.6292 400.328 71.9697 413.494C57.5758 466.643 58.0637 463.962 61.4792 465.912C63.187 467.131 69.5301 469.081 75.6292 470.3C81.7283 471.52 88.3154 473.47 90.5111 474.201C93.6827 475.42 95.8783 470.544 102.221 446.895C118.079 388.626 115.884 393.502 128.814 385.944C138.816 380.093 142.72 379.117 160.285 379.117C176.631 379.117 181.51 378.142 187.121 373.997C196.636 366.927 204.931 354.005 204.931 345.96C204.931 340.108 207.615 337.67 225.18 326.943L245.185 314.753L245.917 336.208L246.649 357.662L236.89 367.171C218.593 385.7 218.593 407.886 236.89 427.878C244.453 436.168 246.405 440.069 246.405 447.627C246.405 456.404 244.453 459.085 214.202 489.317L181.754 521.743L195.172 535.153L208.59 548.562L235.427 521.743C250.309 507.115 263.483 494.925 264.702 494.925C266.166 494.925 279.34 506.871 293.978 521.743L320.815 548.562H349.358H378.146V513.21V477.858L391.077 471.52C397.908 467.862 408.398 461.767 414.009 458.11C419.621 454.209 424.744 451.04 425.72 451.04C426.452 451.04 438.894 457.623 453.044 465.912C467.194 473.958 479.392 479.809 480.368 478.59C484.027 474.445 564.048 333.77 563.316 333.038C562.828 332.55 550.874 325.724 536.968 317.678L511.352 303.05L511.596 275.744C511.596 260.628 512.571 247.462 513.791 246.243C515.011 245.024 525.99 238.442 537.944 231.615C550.142 224.789 560.877 218.206 561.852 217.231C562.828 216.255 545.751 184.073 523.794 146.039C501.837 108.006 482.808 74.8482 481.588 72.654C479.392 68.7531 478.172 68.9969 465.974 76.3111C458.655 80.6996 446.457 87.7699 439.138 91.9146L425.72 99.7164L414.741 92.4022C408.642 88.2575 396.444 81.1872 387.417 76.5549L370.827 68.2655V35.3518V2.43805L344.723 2.68188H318.375L305.445 19.0168ZM354.97 99.7164C376.195 108.25 395.468 119.465 410.35 131.899L421.816 141.407L443.041 129.217C454.752 122.39 465.242 117.27 466.462 117.514C468.414 118.246 517.695 202.846 516.475 203.821C516.231 204.065 506.228 209.916 494.518 216.987L472.805 229.665L475.001 242.099C477.44 258.434 477.44 290.128 475.001 307.195L472.805 320.604L493.786 332.55C505.252 338.889 515.255 344.985 515.743 345.96C516.475 347.179 471.585 428.122 467.194 433.486C466.95 433.73 456.947 428.61 445.481 421.783C433.771 415.201 423.524 409.593 422.792 409.593C422.304 409.593 415.473 414.469 407.666 420.32C391.565 432.754 371.315 443.97 357.409 448.602C341.552 453.722 341.552 453.722 341.552 484.197C341.552 499.557 341.064 511.991 340.82 511.991C340.332 511.991 327.646 499.557 312.764 484.685C286.659 458.354 285.44 456.647 285.44 446.651C285.44 437.874 286.659 435.193 293.734 429.097C304.713 419.345 308.128 409.837 306.909 394.233L305.933 381.312L319.351 374.729C348.139 361.32 373.755 330.844 381.806 301.1C385.709 286.715 385.953 282.57 383.514 267.698C376.683 228.202 353.75 200.164 315.935 185.048L306.177 180.904L306.909 166.275C307.884 148.965 303.005 136.531 292.271 128.485C286.415 124.097 285.44 121.903 285.44 111.419C285.44 99.7164 285.927 98.985 310.568 71.9226L335.452 44.3726L336.672 68.7531L337.892 92.8898L354.97 99.7164ZM316.667 213.086C340.82 225.52 356.19 248.438 358.141 275.5C359.117 289.641 358.385 294.029 353.018 305.732C344.723 324.017 327.158 342.059 309.104 351.08C283.488 363.758 285.44 369.853 285.44 281.351V204.065L295.442 205.772C300.809 206.747 310.568 209.916 316.667 213.086Z" fill="#0D4CD3"/>
<path d="M145.647 77.0426L131.497 85.5758L136.133 93.3775C138.816 97.766 143.94 106.299 147.599 112.638C151.259 119.221 154.674 124.341 155.162 124.341C155.894 124.341 163.457 120.196 171.996 115.32L187.609 106.299L183.218 98.9851C180.778 94.8404 175.655 86.3072 171.996 79.7244C168.336 73.3855 164.189 68.2656 162.725 68.5094C161.017 68.5094 153.454 72.4103 145.647 77.0426Z" fill="#0D4CD3"/>
<path d="M29.7636 279.645L30.4955 298.662L53.1843 299.393L75.6292 300.125V280.376V260.872H52.4524H29.0317L29.7636 279.645Z" fill="#0D4CD3"/>
<path d="M142.964 453.966C136.621 464.693 131.985 473.958 132.229 474.201C134.913 476.64 163.945 492.731 164.677 491.999C165.165 491.755 170.532 482.735 176.631 472.495L187.853 453.478L182.242 450.309C179.315 448.358 171.752 443.97 165.652 440.556L154.43 434.217L142.964 453.966Z" fill="#0D4CD3"/>
</svg>
