<svg width="1552" height="357" viewBox="0 0 1552 357" fill="none" xmlns="http://www.w3.org/2000/svg">
<path d="M194.279 23.9859L179.764 41.8359L162.458 25.6593C152.409 16.1765 142.36 11.1562 137.335 12.8297C124.495 17.8499 126.17 23.4281 147.942 44.625C169.715 65.8218 171.948 75.3047 157.991 90.3656C148.501 100.964 148.501 102.08 157.991 118.256C167.482 134.991 170.832 156.187 163.574 156.187C156.875 155.63 142.918 142.8 136.219 131.086C132.869 124.95 125.053 119.372 119.471 118.256C86.5324 113.236 84.8576 112.12 78.1583 83.6718C74.2504 68.6109 69.7842 55.7812 68.1094 55.7812C56.9439 56.339 49.1281 66.9374 52.4777 77.5359C54.1525 83.6718 57.5022 94.2703 59.177 100.406C61.4101 109.331 58.0605 112.12 37.4043 117.698C16.7482 122.719 12.8403 125.508 15.0734 134.433C18.4231 147.262 18.9813 147.262 50.8029 137.78C79.2749 128.855 89.3238 131.086 89.3238 145.031C89.3238 158.977 103.839 169.017 120.029 166.228C127.845 164.555 138.452 166.786 143.476 170.691C152.967 177.942 152.967 179.058 143.476 186.309C138.452 190.214 127.845 192.445 120.029 190.772C103.839 187.983 89.3238 198.023 89.3238 211.969C89.3238 226.472 79.2749 228.145 50.2446 219.778C18.423 210.295 18.4231 209.737 15.0734 222.567C12.8403 231.492 16.7482 234.281 37.4043 239.302C59.177 244.88 61.4101 247.111 58.6187 258.267C56.3856 264.961 53.5943 275.002 51.9195 281.137C49.6864 290.062 57.5022 300.661 67.5511 301.219C69.2259 301.219 73.6921 288.389 77.6 273.328C84.8576 244.88 86.5324 243.764 120.029 238.744C126.17 237.628 133.427 231.492 136.777 224.798C139.568 218.105 147.384 210.295 154.642 206.948C165.807 201.928 167.482 202.486 167.482 211.411C167.482 217.547 163.016 229.819 157.991 238.744C148.501 254.92 148.501 256.036 157.991 266.634C171.948 281.695 169.715 291.178 147.942 312.375C132.869 326.878 130.078 332.456 135.102 338.592C140.127 344.728 144.593 343.055 159.108 329.109L176.414 312.375L192.604 329.109C204.328 341.381 213.819 345.844 227.217 345.844C244.524 345.844 245.64 344.728 245.64 326.32C245.64 310.144 248.99 304.566 263.505 295.641C280.253 285.6 281.928 285.6 297.001 293.967C305.376 299.545 313.191 302.334 314.308 300.661C315.425 299.545 327.148 280.022 340.547 257.152L364.553 215.316L349.479 203.602C329.94 187.983 329.94 163.439 349.479 147.82L364.553 136.106L344.455 99.8484C312.633 44.0671 315.983 47.414 296.443 55.7812C282.486 61.3593 275.787 61.3593 262.389 55.7812C247.873 49.6453 245.64 45.7406 245.64 27.3328C245.64 6.6937 245.082 5.57806 227.776 6.13589C214.377 6.13589 205.445 11.1562 194.279 23.9859ZM252.34 73.6312C278.578 87.5765 282.486 88.1343 293.652 81.4406C304.817 73.6312 306.492 74.7468 321.007 101.522L336.639 130.528L324.915 138.337C307.05 150.052 307.05 201.37 324.357 213.084L336.639 220.894L324.357 243.764C310.4 272.212 304.817 275.559 290.302 267.75C281.37 262.73 274.112 264.403 254.014 276.675C233.358 288.389 228.892 293.967 228.892 307.355C228.892 327.436 225.542 327.436 205.445 308.47C188.138 291.736 185.347 278.348 198.187 267.75C202.653 263.845 206.561 257.152 206.561 252.689C206.561 248.784 216.61 235.397 228.892 223.683C247.873 205.833 251.223 199.139 251.223 179.616C251.223 155.63 232.242 126.066 212.702 119.93C206.003 117.698 203.212 113.236 204.886 106.542C206.003 101.522 203.212 93.7125 198.745 89.8078C185.905 79.2093 187.58 66.9375 205.445 48.5297L220.518 32.3531L222.193 45.7406C223.309 54.6656 232.242 63.0328 252.34 73.6312ZM211.586 136.664C229.45 145.589 242.849 172.364 237.266 189.098C233.917 200.812 203.77 228.703 194.837 228.703C192.046 228.703 189.813 205.833 189.813 178.5C189.813 150.609 190.93 128.297 192.604 128.297C194.837 128.297 203.212 132.202 211.586 136.664Z" fill="#0D4CD3"/>
<path d="M104.397 50.761C97.1396 55.2235 96.0231 58.5704 100.489 67.4954C107.189 79.2095 110.538 80.3251 122.262 73.0735C134.544 65.2642 117.237 43.5095 104.397 50.761Z" fill="#0D4CD3"/>
<path d="M705.658 111.562C689.468 118.256 666.02 147.262 661.554 166.786C656.53 190.772 675.511 230.934 697.284 242.091C727.43 257.709 751.994 253.805 776.558 229.261C794.981 210.853 798.331 204.159 798.331 183.52C798.331 131.086 750.32 93.7124 705.658 111.562ZM759.252 146.147C775.442 163.997 774.325 197.466 756.461 214.758C739.712 232.05 725.197 232.608 706.774 215.873C686.676 198.581 683.327 174.595 697.284 151.725C706.774 137.222 712.357 133.875 727.989 133.875C740.829 133.875 751.436 137.78 759.252 146.147Z" fill="black"/>
<path d="M984.236 113.794C935.666 135.548 930.642 204.717 974.745 239.301C1007.68 265.519 1061.84 245.995 1076.91 202.486C1084.17 182.405 1084.17 177.384 1075.23 154.514C1060.16 114.351 1021.08 97.0592 984.236 113.794ZM1040.62 144.473C1045.65 150.051 1051.23 163.997 1053.46 174.595C1056.25 191.887 1054.02 196.908 1039.51 211.969C1018.85 232.05 1003.22 233.165 985.353 214.758C956.881 186.867 975.304 133.875 1012.71 133.875C1023.32 133.875 1035.04 138.337 1040.62 144.473Z" fill="black"/>
<path d="M1286.82 113.794C1261.14 124.95 1249.42 141.684 1246.07 170.69C1239.37 229.819 1294.08 269.423 1345.44 242.648C1383.96 222.567 1392.33 164.554 1361.07 131.086C1339.86 108.215 1312.5 101.522 1286.82 113.794ZM1334.27 139.453C1348.79 147.262 1358.28 179.058 1351.58 196.908C1345.44 213.084 1325.34 228.703 1310.27 228.703C1291.84 228.703 1272.86 203.601 1272.86 178.5C1272.86 142.242 1303.01 122.719 1334.27 139.453Z" fill="black"/>
<path d="M413.123 181.289V251.016H427.079C439.92 251.016 441.036 248.784 441.036 225.914V200.812H463.925C492.956 200.812 505.238 193.561 512.495 172.922C519.753 152.841 511.937 124.95 496.864 117.141C491.281 113.794 470.066 111.562 449.969 111.562H413.123V181.289ZM485.698 145.031C495.189 162.881 483.465 178.5 460.576 178.5C441.594 178.5 441.036 177.942 441.036 156.187C441.036 134.433 441.594 133.875 460.576 133.875C473.974 133.875 481.232 137.222 485.698 145.031Z" fill="black"/>
<path d="M535.942 181.289V251.016H549.899C562.74 251.016 563.856 248.784 563.856 225.914C563.856 203.044 564.973 200.812 577.813 200.812C587.862 200.812 595.119 206.948 606.285 225.914C616.892 244.88 624.15 251.016 634.199 251.016C650.947 251.016 650.947 249.9 633.64 220.894C619.683 196.908 619.683 196.908 630.849 186.867C645.922 172.922 645.922 137.78 630.849 122.719C621.916 113.794 612.426 111.562 577.813 111.562H535.942V181.289ZM614.101 145.031C624.15 163.997 611.868 178.5 586.187 178.5C563.856 178.5 563.856 178.5 563.856 156.187C563.856 133.875 563.856 133.875 586.187 133.875C602.377 133.875 609.634 136.664 614.101 145.031Z" fill="black"/>
<path d="M812.846 118.256C815.079 122.161 825.686 137.78 836.294 152.283L855.275 179.058L841.876 199.697C804.472 256.594 806.705 251.016 822.337 251.016C833.502 251.016 841.318 244.88 854.158 225.356L872.023 200.255L888.213 225.356C900.495 245.437 907.752 251.016 918.918 251.016H933.433L923.384 235.397C918.36 227.03 907.752 210.853 899.937 199.697L886.538 179.058L900.495 160.65C907.752 150.609 918.36 135.548 923.942 126.623C933.433 111.562 933.433 111.562 918.918 111.562C908.311 111.562 900.495 117.141 889.888 133.875C881.514 146.147 873.14 156.187 870.906 156.187C868.673 156.187 860.299 146.147 851.925 133.875C841.318 117.698 833.502 111.562 822.895 111.562C813.404 111.562 810.055 113.794 812.846 118.256Z" fill="black"/>
<path d="M1124.92 159.534C1121.57 200.255 1118.78 210.295 1107.61 221.452C1091.98 237.07 1090.31 251.016 1104.26 251.016C1132.74 251.016 1150.04 218.105 1150.04 162.881V133.875H1172.37H1194.71V192.445V251.016H1208.66H1222.62V181.289V111.562H1175.72H1128.83L1124.92 159.534Z" fill="black"/>
<path d="M1426.95 123.834C1425.27 131.086 1423.04 153.956 1421.92 175.153C1420.81 206.391 1418.01 215.316 1407.97 223.125C1390.66 237.07 1390.1 278.906 1406.85 278.906C1415.22 278.906 1418.01 275.002 1418.01 264.961C1418.01 251.016 1418.57 251.016 1468.26 251.016C1517.95 251.016 1518.5 251.016 1518.5 264.961C1518.5 275.002 1521.29 278.906 1529.67 278.906C1539.16 278.906 1540.83 275.002 1540.83 254.362C1540.83 234.839 1538.6 229.261 1529.67 227.03C1519.62 224.241 1518.5 219.22 1518.5 167.902V111.562H1473.84C1431.97 111.562 1429.18 112.12 1426.95 123.834ZM1495.06 179.616L1493.38 225.914L1466.03 227.587C1439.79 229.261 1439.23 228.703 1442.58 216.431C1444.81 209.18 1448.16 187.983 1449.84 168.459L1453.19 133.875H1474.96H1496.73L1495.06 179.616Z" fill="black"/>
<path d="M33.4966 178.5C33.4966 185.752 37.4045 189.656 44.6621 189.656C51.9196 189.656 55.8275 185.752 55.8275 178.5C55.8275 171.248 51.9196 167.344 44.6621 167.344C37.4045 167.344 33.4966 171.248 33.4966 178.5Z" fill="#0D4CD3"/>
<path d="M100.489 290.063C96.023 298.43 97.1395 301.777 104.955 306.239C113.888 310.702 116.679 309.586 121.704 298.43C126.728 287.831 126.17 285.042 119.47 282.253C107.188 277.791 107.188 277.791 100.489 290.063Z" fill="#0D4CD3"/>
</svg>
