<svg width="3417.4" height="912.7" version="1.1" viewBox="0 0 3417.4 912.7" xmlns="http://www.w3.org/2000/svg">
 <path d="m1449.3 816.02-34.248-454.71-85.647-6.1031 15.559 265.96-164.77-23.836-19.906-254.46-262.17-18.756 26.364 241.75-160.14-20.581-69.966-467.82-490.71-6.9284s-9.9663 13.691 2.1076 61.324c11.563 45.618 15.181 53.443 29.085 62.909 10.482 7.1363 11.57 7.2361 160.35 14.716 69.186 3.4784 135.47 8.0158 147.3 10.083 52.572 9.1866 79.723 25.835 93.631 57.412 5.5163 12.524 33.302 175.55 33.234 194.99-0.0648 18.367-8.256 30.61-26.625 39.794-14.974 7.4872-15.897 7.6155-53.333 7.4163-32.631-0.17372-61.954-3.3603-204.44-22.218-91.492-12.108-168.77-22.017-171.73-22.019-5.3695-5e-3 -5.3648 0.0653 1.7557 25.611 7.9468 28.51 21.383 40.408 21.383 40.408l1115.2 170.87 7.6048 120.51s-1188.1-240.19-1190.3-242.69c-2.1002-2.3925-56.153-191.25-55.052-192.35 0.49554-0.49554 78.478 7.8099 173.3 18.457 190.74 21.418 188.28 21.348 202.62 5.7456 8.9585-9.7503 9.0541-19.516 0.59769-61.037-7.0262-34.499-12.202-44.737-26.751-52.913-13.506-7.5906-30.91-9.5097-187.34-20.657-85.168-6.0692-146.97-11.553-152.79-13.557-26.246-9.0426-46.161-27.682-59.334-55.534-3.4719-7.3406-19.007-57.346-34.523-111.12s-29.605-106.67-29.605-106.67l858.64-2.9678e-6 28.265 233.52 267.23 14.005-14.871-247.52h165.08l18.359 255.4 258 14.873 19.937 517.3s21.112 7.2988 76.667 16.272l72.014 11.632 71.041-11.565c39.073-6.3608 73.189-12.714 75.813-14.119 2.6245-1.4046 5.396-6.2542 6.159-10.777 1.0893-6.4569 14.074-513.03 14.074-513.03l260.1-9.8094 18.166-256.18 1222.7 1.9048-173.2 606.47-1105.3 224.44 8.4946-121.72 1042.1-161.1s7.6671-7.3018 9.1759-11.075c6.6073-16.521 117.14-438.79 117.14-447.51 0-7.8145-1.6-11.044-8.254-16.658l-8.254-6.9645-195.97 4.1535-96.055 437.83-162.45 20.502 77.276-451.11-566.55 6.6721-11.668 162.09 321.6-15.164-10.735 92.078-316.59 21.756-19.329 252.35-165.68 20.509 16.716-265.19-86.974 6.8044-33.746 454.95c-4.7565 18.34-16.272 33.26-35.756 42.709s-244.66 53.694-260.77 53.969-274.24-55.034-274.24-55.034c-16.788-8.22-27.839-25.741-29.037-41.644zm1253.1-282.34c-50.962-23.152-36.305-100.55 24.834-131.13 15.013-7.5105 20.386-8.8836 34.576-8.8365 41.731 0.13867 65.349 30.909 54.972 71.619-13.124 51.487-72.89 87.201-114.38 68.351zm28.672-24.462c0.3924-0.32368 1.3948-6.3395 2.2273-13.369 1.7905-15.118 3.0562-17.586 9.6244-18.766 4.0977-0.73628 5.778 1.8634 9.7942 15.152 3.6249 11.994 5.7933 15.678 8.5946 14.603 2.0607-0.79073 7.0138-1.4377 11.007-1.4377h7.2602l-5.9931-17.62-5.9929-17.62 6.3563-4.1648c6.7251-4.4063 13.551-17.836 13.551-26.661 0-2.902-2.9186-8.1951-6.4861-11.762-6.2595-6.2595-7.2127-6.4219-27.302-4.651-32.739 2.8861-30.427 0.15162-35.675 42.203-2.5026 20.056-5.1838 39.116-5.9584 42.355-1.3384 5.5973-0.9204 5.8009 8.4348 4.1075 5.4136-0.97994 10.164-2.0466 10.557-2.3702zm8.175-56.931c0-8.4756 6.5137-12.918 18.941-12.918 14.689 0 6.6638 16.362-9.4174 19.201-9.3382 1.6486-9.5238 1.5261-9.5238-6.2832z" fill="#11155e" stroke-width="2.5397"/>
</svg>
